<svg width="40" height="40" viewBox="0 0 40 40" fill="none" xmlns="http://www.w3.org/2000/svg">
<g clip-path="url(#clip0_178_21560)" filter="url(#filter0_i_178_21560)">
<path fill-rule="evenodd" clip-rule="evenodd" d="M0 6.59849C0 4.8466 0.693642 3.16585 1.92975 1.92975C3.16585 0.693642 4.8466 0 6.59849 0H33.3926C35.1445 0 36.8253 0.693642 38.0614 1.92975C39.2975 3.16585 39.9911 4.8466 39.9911 6.59849V33.3926C39.9911 35.1445 39.2975 36.8253 38.0614 38.0614C36.8253 39.2975 35.1445 39.9911 33.3926 39.9911H6.59849C4.8466 39.9911 3.16585 39.2975 1.92975 38.0614C0.693642 36.8253 0 35.1445 0 33.3926V6.59849Z" fill="url(#paint0_linear_178_21560)"/>
<path d="M19.9994 24.0462C22.234 24.0462 24.0456 22.2347 24.0456 20C24.0456 17.7653 22.234 15.9537 19.9994 15.9537C17.7647 15.9537 15.9531 17.7653 15.9531 20C15.9531 22.2347 17.7647 24.0462 19.9994 24.0462Z" fill="url(#paint1_linear_178_21560)"/>
</g>
<defs>
<filter id="filter0_i_178_21560" x="0" y="0" width="40" height="40" filterUnits="userSpaceOnUse" color-interpolation-filters="sRGB">
<feFlood flood-opacity="0" result="BackgroundImageFix"/>
<feBlend mode="normal" in="SourceGraphic" in2="BackgroundImageFix" result="shape"/>
<feColorMatrix in="SourceAlpha" type="matrix" values="0 0 0 0 0 0 0 0 0 0 0 0 0 0 0 0 0 0 127 0" result="hardAlpha"/>
<feOffset/>
<feGaussianBlur stdDeviation="2"/>
<feComposite in2="hardAlpha" operator="arithmetic" k2="-1" k3="1"/>
<feColorMatrix type="matrix" values="0 0 0 0 0 0 0 0 0 0 0 0 0 0 0 0 0 0 0.4 0"/>
<feBlend mode="normal" in2="shape" result="effect1_innerShadow_178_21560"/>
</filter>
<linearGradient id="paint0_linear_178_21560" x1="19.9956" y1="0" x2="19.9956" y2="39.9911" gradientUnits="userSpaceOnUse">
<stop stop-color="white"/>
<stop offset="1" stop-color="#F1EDED"/>
</linearGradient>
<linearGradient id="paint1_linear_178_21560" x1="16.886" y1="16.5407" x2="24.0899" y2="24.5451" gradientUnits="userSpaceOnUse">
<stop stop-color="#4F1919"/>
<stop offset="1" stop-color="#F24C4C"/>
</linearGradient>
<clipPath id="clip0_178_21560">
<rect width="40" height="40" fill="white"/>
</clipPath>
</defs>
</svg>
